PathFileType	3	(X/Y/Z)	E:\ViconData\BIOM9541 2025\Week 7\Mon0900\MingceV2 Cal 01.trc
DataRate	CameraRate	NumFrames	NumMarkers	Units	OrigDataRate	OrigDataStartFrame	OrigNumFrames
200.0	200.0	8	19	mm	200.0	137	273	
Frame#	Time	C7			CLAV			RBAK			LASI			RASI			LPSI			RPSI			LTHI			LKNE			LTIB			LANK			LHEE			LTOE			RTHI			RKNE			RTIB			RANK			RHEE			RTOE			
		X1	Y1	Z1	X2	Y2	Z2	X3	Y3	Z3	X4	Y4	Z4	X5	Y5	Z5	X6	Y6	Z6	X7	Y7	Z7	X8	Y8	Z8	X9	Y9	Z9	X10	Y10	Z10	X11	Y11	Z11	X12	Y12	Z12	X13	Y13	Z13	X14	Y14	Z14	X15	Y15	Z15	X16	Y16	Z16	X17	Y17	Z17	X18	Y18	Z18	X19	Y19	Z19	
137	0.68	239.9534	1433.5411	-1047.7169	243.71599	1382.0615	-907.76086	83.181747	1411.7115	-986.31378	336.20169	943.69995	-806.80353	108.52224	969.526	-824.50439	268.37943	979.26923	-1021.5958	199.17891	983.69061	-1020.5502	407.65616	669.25397	-873.85205	367.02789	470.67526	-914.6026	377.60141	262.36951	-993.11847	332.51971	79.614944	-957.69598	277.41232	45.159325	-1005.006	323.11984	43.404007	-819.56384	47.015568	704.9967	-883.9588	94.862457	473.89618	-940.12512	78.585243	367.37164	-1009.7966	125.48712	78.691338	-986.5351	188.03165	49.884014	-1017.2062	98.517082	42.942204	-849.151
138	0.685	239.96687	1433.5144	-1047.6906	243.69975	1382.0771	-907.73615	83.182205	1411.6827	-986.3125	336.21463	943.716	-806.84027	108.51672	969.51849	-824.53723	268.40845	979.21851	-1021.6268	199.19856	983.64435	-1020.5818	407.64169	669.26239	-873.90918	367.58209	471.3356	-914.18512	377.61499	262.35617	-993.16058	332.5358	79.612679	-957.72198	277.43323	45.095642	-1004.9881	323.11337	43.423767	-819.54181	47.045605	704.94513	-883.96765	94.384605	473.84897	-940.30566	78.580116	367.33456	-1009.8177	125.4753	78.64431	-986.54279	188.02844	49.826832	-1017.2194	98.535797	42.92889	-849.15857
139	0.69	239.95074	1433.4897	-1047.666	243.64571	1382.1366	-907.71106	83.178673	1411.6891	-986.27856	336.20203	943.73792	-806.88959	108.51244	969.52887	-824.57037	268.392	979.18219	-1021.6694	199.17499	983.61273	-1020.6281	407.61569	669.21619	-874.07288	367.56964	471.3663	-914.27246	377.59634	262.37866	-993.22192	332.48843	79.611435	-957.76569	277.46353	44.993641	-1004.9555	323.10068	43.477337	-819.49274	47.053871	704.90619	-883.97662	94.893074	473.828	-940.14502	78.555229	367.29272	-1009.8249	125.48563	78.6026	-986.57513	188.01099	49.759819	-1017.2219	98.549576	42.942329	-849.23529
140	0.695	239.94624	1433.5352	-1047.5984	243.6026	1382.1628	-907.71564	83.136055	1411.694	-986.24365	336.20291	943.73981	-806.93176	108.49234	969.55341	-824.5993	268.3609	979.20312	-1021.6964	199.15691	983.61957	-1020.6389	407.60086	669.22992	-874.17737	367.58826	471.42493	-914.30219	377.56802	262.38376	-993.25952	332.48111	79.664223	-957.73663	277.46683	44.954353	-1004.9523	323.07867	43.48904	-819.48596	47.058685	704.87836	-883.98096	94.381111	473.78464	-940.32758	78.5168	367.26889	-1009.8378	125.61689	78.577225	-986.56842	187.9727	49.731133	-1017.21	98.534431	42.938	-849.23553
141	0.7	239.88429	1433.5826	-1047.5471	243.58452	1382.1324	-907.73364	83.100227	1411.7079	-986.20752	336.20187	943.71375	-806.9729	108.50372	969.53711	-824.60907	268.31488	979.26147	-1021.7274	199.11755	983.65631	-1020.6677	407.59216	669.23505	-874.20288	367.56976	471.37573	-914.35962	377.54376	262.35101	-993.26593	332.4256	79.552048	-957.82306	277.39862	45.037617	-1004.9644	323.08322	43.429249	-819.55017	47.025482	704.91858	-884.00623	94.330971	473.80185	-940.33307	78.479279	367.29828	-1009.8529	125.59525	78.606003	-986.53827	187.95015	49.760693	-1017.1783	98.516754	42.943001	-849.20526
142	0.705	239.84082	1433.6632	-1047.5045	243.57965	1382.0878	-907.74799	83.067024	1411.6847	-986.18274	336.21072	943.66888	-807.02887	108.49912	969.48273	-824.6347	268.29562	979.30725	-1021.7623	199.08636	983.75708	-1020.7161	407.62027	669.23651	-874.17523	367.02661	470.65002	-914.8338	377.57797	262.39044	-993.18353	332.46759	79.604065	-957.69885	277.36499	45.14027	-1004.9447	323.09323	43.423733	-819.51947	46.97155	704.96497	-884.01331	94.76123	473.91141	-940.19818	78.43782	367.34848	-1009.8619	125.4191	78.63604	-986.50903	187.93802	49.819588	-1017.1678	98.466942	42.949257	-849.13367
143	0.71	239.81743	1433.7236	-1047.4952	243.57658	1382.0623	-907.73706	83.036247	1411.6906	-986.16687	336.21729	943.64899	-807.08832	108.5133	969.4472	-824.67474	268.27783	979.37183	-1021.8011	199.08537	983.83521	-1020.7482	407.62994	669.29205	-874.15082	367.0412	470.6373	-914.85632	377.60876	262.3671	-993.21045	332.54105	79.646896	-957.59857	277.3432	45.250656	-1004.9966	323.1008	43.40646	-819.53076	46.941597	704.9917	-884.07471	94.764236	473.9248	-940.24469	78.423836	367.35211	-1009.8547	125.42406	78.684875	-986.51837	187.97046	49.877953	-1017.172	98.466972	42.941982	-849.12469
144	0.715	239.83966	1433.7174	-1047.4794	243.5778	1382.079	-907.72168	83.057289	1411.7136	-986.13647	336.22235	943.67712	-807.1687	108.51416	969.45752	-824.72559	268.30472	979.36383	-1021.8502	199.11508	983.81232	-1020.7863	407.64432	669.26526	-874.27686	367.05423	470.67389	-914.92865	377.61331	262.37817	-993.26367	332.58188	79.652458	-957.66931	277.43213	45.120052	-1004.9321	323.12125	43.367374	-819.61237	46.965973	704.94611	-884.1413	94.750786	473.91528	-940.31848	78.450989	367.3125	-1009.9061	125.44975	78.670471	-986.55316	187.98547	49.814377	-1017.1565	98.485199	42.943741	-849.18762
